<svg version="1.1" xmlns="http://www.w3.org/2000/svg" xmlns:xlink="http://www.w3.org/1999/xlink" width="160.22068" height="148.52336" viewBox="0,0,160.22068,148.52336"><g transform="translate(-240.09754,-107.42398)"><g data-paper-data="{&quot;isPaintingLayer&quot;:true}" stroke-linejoin="miter" stroke-miterlimit="10" stroke-dasharray="" stroke-dashoffset="0" style="mix-blend-mode: normal"><path d="M346.53304,112.7626c0,0 6.90051,1.18292 15.28607,11.7022c7.72635,9.69234 16.78478,28.45976 21.25583,35.56673c7.28759,11.584 14.8117,34.3603 14.8117,34.3603c0,0 1.39251,11.71923 -0.81123,16.34382c-1.83297,3.84651 -11.50499,9.50196 -11.50499,9.50196l-40.70561,-17.03246l-48.98239,12.38049c0,0 -17.93173,24.26393 -23.18133,30.52199c-2.68092,3.19593 -7.05407,4.71839 -7.05407,4.71839c0,0 -7.00006,-0.75447 -9.85942,-1.93323c-2.37505,-0.97911 -6.11501,-4.65217 -6.11501,-4.65217c0,0 -5.91646,-20.79115 -7.13002,-34.76214c-1.37473,-15.8264 -0.69529,-55.32594 -0.69529,-55.32594c0,0 0.71252,-4.54423 1.39501,-6.6248c0.78485,-2.3926 3.05008,-6.92596 3.05008,-6.92596c0,0 6.3665,-8.94187 11.02463,-12.14529c3.62249,-2.49121 14.60675,-5.48154 14.60675,-5.48154l6.5809,3.82055l34.38257,-9.12452l3.60829,-6.2153c0,0 11.31628,-2.45281 15.46734,-2.2722c5.48493,0.23865 14.57016,3.57912 14.57016,3.57912z" fill="#ffffff" fill-rule="nonzero" stroke="#000000" stroke-width="3.5" stroke-linecap="round"/><path d="M321.46279,144.15801c-1.01634,-3.82971 1.26435,-7.7582 5.09406,-8.77454c3.82971,-1.01634 7.7582,1.26435 8.77454,5.09406c1.01634,3.82971 -1.26435,7.7582 -5.09406,8.77454c-3.82971,1.01634 -7.7582,-1.26435 -8.77454,-5.09406z" fill="#723f7e" fill-rule="nonzero" stroke="#4a4a4a" stroke-width="2" stroke-linecap="butt"/><path d="M309.78885,161.08891c-1.01634,-3.82971 1.26435,-7.7582 5.09406,-8.77454c3.82971,-1.01634 7.7582,1.26435 8.77454,5.09406c1.01634,3.82971 -1.26435,7.7582 -5.09406,8.77454c-3.82971,1.01634 -7.7582,-1.26435 -8.77454,-5.09406z" fill="#894c99" fill-rule="nonzero" stroke="#4a4a4a" stroke-width="2" stroke-linecap="butt"/><path d="M326.81336,171.95015c-1.01634,-3.82971 1.26435,-7.7582 5.09406,-8.77454c3.82971,-1.01634 7.7582,1.26435 8.77454,5.09406c1.01634,3.82971 -1.26435,7.7582 -5.09406,8.77454c-3.82971,1.01634 -7.7582,-1.26435 -8.77454,-5.09406z" fill="#5c3366" fill-rule="nonzero" stroke="#4a4a4a" stroke-width="2" stroke-linecap="butt"/><path d="M263.23296,176.4668c-2.7314,-10.29234 3.39795,-20.85017 13.69029,-23.58157c10.29234,-2.7314 20.85017,3.39795 23.58157,13.69029c2.7314,10.29234 -3.39795,20.85017 -13.69029,23.58157c-10.29234,2.7314 -20.85017,-3.39795 -23.58157,-13.69029z" fill="#8b4c99" fill-rule="nonzero" stroke="#4a4a4a" stroke-width="3.5" stroke-linecap="butt"/><path d="M277.18659,166.11429c-0.93164,-3.51057 1.15899,-7.11169 4.66956,-8.04333c3.51057,-0.93164 7.11169,1.15899 8.04333,4.66956c0.93164,3.51057 -1.15899,7.11169 -4.66956,8.04333c-3.51057,0.93164 -7.11169,-1.15899 -8.04333,-4.66956z" fill="#723f7e" fill-rule="nonzero" stroke="#4a4a4a" stroke-width="3.5" stroke-linecap="butt"/><path d="M338.72944,155.40424c-1.01634,-3.82971 1.26435,-7.7582 5.09406,-8.77454c3.82971,-1.01634 7.7582,1.26435 8.77454,5.09406c1.01634,3.82971 -1.26435,7.7582 -5.09406,8.77454c-3.82971,1.01634 -7.7582,-1.26435 -8.77454,-5.09406z" fill="#663871" fill-rule="nonzero" stroke="#4a4a4a" stroke-width="2" stroke-linecap="butt"/><g stroke="none" stroke-width="1" stroke-linecap="butt"><path d="M362.57133,159.01619c6.25815,1.04331 11.53014,5.7414 11.53014,11.99435v21.97309c0,6.44291 -5.11841,11.72529 -11.53014,11.72529h-23.03372c-7.82052,0 -14.40604,6.71716 -14.40604,14.33329v10.54226h-7.92906c-6.70157,0 -10.61674,-4.86783 -12.2559,-11.69873c-2.21134,-9.17735 -2.1178,-14.66181 0,-23.45059c1.83547,-7.66751 7.70447,-11.69873 14.40604,-11.69873h31.7151v-2.93075h-23.06028v-8.79455c0,-6.65884 1.77196,-10.26916 11.53014,-11.99435c3.31239,-0.58661 7.07686,-0.92322 11.01974,-0.9417c3.9423,-0.01848 8.05205,0.28176 12.01398,0.94112zM333.75926,169.55787c0,2.42439 1.93651,4.38399 4.32683,4.38399c2.38166,0 4.32683,-1.96076 4.32683,-4.38399c0,-2.4319 -1.94459,-4.41055 -4.32683,-4.41055c-2.39032,0 -4.32683,1.97866 -4.32683,4.41055z" fill="#3a6c91" fill-rule="nonzero"/><path d="M362.61446,160.15477c-3.89265,-0.64724 -7.93657,-0.94343 -11.81883,-0.92495c-3.88283,0.0179 -7.58149,0.34931 -10.82344,0.9238c-4.80028,0.84874 -7.34996,2.12069 -8.7472,3.75928c-1.38281,1.62242 -1.8297,3.83029 -1.8297,7.09822v7.6398h23.06028v5.24024h-32.86985c-6.18367,0 -11.57575,3.68018 -13.28305,10.81304l-0.00058,0.00173c-1.04678,4.34473 -1.57969,7.81763 -1.59124,11.31247c-0.01097,3.49484 0.49885,7.06358 1.59124,11.59654l0.00058,0.00115c0.78869,3.28756 2.10222,5.99891 3.93307,7.87421c1.80429,1.84817 4.16055,2.93941 7.19984,2.93941h6.77432v-9.38751c0,-8.25066 7.09938,-15.48803 15.56078,-15.48803h23.03372c5.75121,0 10.37539,-4.74197 10.37539,-10.57055v-21.97309c0,-5.52373 -4.68481,-9.87423 -10.56535,-10.85577zM350.78466,156.92033c4.00293,-0.01894 8.17791,0.2858 12.20913,0.95671c6.63517,1.10682 12.49551,6.15191 12.49551,13.13351v21.97309c0,7.05723 -5.61207,12.88004 -12.68489,12.88004h-23.03372c-7.17963,0 -13.25129,6.19752 -13.25129,13.17854v11.697h-9.08381c-3.66228,0 -6.61439,-1.34297 -8.85286,-3.63572c-2.21192,-2.26677 -3.67556,-5.40421 -4.52603,-8.94813c-1.11895,-4.64323 -1.66745,-8.4054 -1.65533,-12.14447c0.01212,-3.73791 0.58488,-7.40192 1.65533,-11.84539c1.96365,-8.20216 8.30955,-12.58385 15.52903,-12.58385h30.56036v-0.62125h-23.06028v-9.94929c0,-3.39033 0.43938,-6.31762 2.38166,-8.59651c1.929,-2.26215 5.14382,-3.65824 10.10172,-4.53469M350.78466,156.92033c-4.00177,0.01848 -7.83264,0.36028 -11.21547,0.95959zM332.8376,169.55787c0,-3.04795 2.43247,-5.5653 5.48158,-5.5653c3.04045,0 5.48158,2.51561 5.48158,5.5653c0,3.04853 -2.44979,5.53874 -5.48158,5.53874c-3.0416,0 -5.48158,-2.49021 -5.48158,-5.53874zM338.31918,166.30206c-1.73096,0 -3.17209,1.43997 -3.17209,3.25581c0,1.80025 1.43304,3.22925 3.17209,3.22925c1.73154,0 3.17209,-1.43131 3.17209,-3.22925c0,-1.81468 -1.44747,-3.25581 -3.17209,-3.25581z" fill="#114167" fill-rule="evenodd"/><path d="M385.86527,182.73583c6.71023,0 9.87366,5.02315 11.53014,11.69873c2.30603,9.27146 2.40822,16.22303 0,23.45001c-2.33086,7.02086 -4.82742,11.69873 -11.53014,11.69873h-34.56386v2.93132h23.03372v8.79339c0,6.65827 -5.72465,10.0434 -11.53014,11.72529c-8.73392,2.53582 -15.73457,2.14783 -23.03372,0c-6.09648,-1.7939 -11.53014,-5.47176 -11.53014,-11.72529v-21.97136c0,-6.32281 5.22061,-11.72529 11.53014,-11.72529h23.03372c7.67502,0 14.40604,-6.68598 14.40604,-14.62948v-10.24606zM359.92852,242.76069c0,2.4319 1.94517,4.40998 4.32741,4.40998c2.38975,0 4.32683,-1.97808 4.32683,-4.40998c0,-2.42439 -1.93709,-4.38399 -4.32683,-4.38399c-2.38166,0 -4.32741,1.96018 -4.32741,4.38399z" fill="#ffc230" fill-rule="nonzero"/><path d="M378.36577,183.89058v9.09132c0,8.57226 -7.23853,15.78423 -15.56078,15.78423h-23.03372c-5.64786,0 -10.37539,4.86148 -10.37539,10.57055v21.97136c0,5.42269 4.70097,8.85171 10.70103,10.61731c7.10573,2.09067 13.88063,2.46827 22.38591,-0.00115l0.00058,-0.00058c2.82104,-0.81698 5.52373,-2.02254 7.50296,-3.75581c1.94575,-1.70383 3.19403,-3.91286 3.19403,-6.85977v-7.63865h-23.03372v-5.24082h35.71861c3.02544,0 5.00063,-1.03061 6.5272,-2.81296c1.59297,-1.85972 2.7431,-4.58896 3.90708,-8.09477v-0.00115c2.31931,-6.95966 2.24598,-13.67681 -0.02483,-22.80681v-0.00058c-0.80948,-3.26043 -1.95614,-5.9787 -3.61667,-7.86844c-1.61895,-1.8424 -3.77256,-2.95326 -6.79279,-2.95326zM385.86527,181.58109c3.68999,0 6.47351,1.40071 8.5278,3.73849c2.01272,2.29044 3.27544,5.42153 4.12302,8.83612c2.34125,9.41349 2.47231,16.59948 -0.0254,24.09436c-1.16687,3.51447 -2.43016,6.63344 -4.34416,8.86787c-1.97981,2.3118 -4.60455,3.62013 -8.28126,3.62013h-33.40912v0.62183h23.03372v9.94814c0,3.71078 -1.61434,6.52374 -3.98214,8.59709c-2.33432,2.04506 -5.39671,3.37244 -8.38115,4.23676c-8.96199,2.6028 -16.18781,2.20383 -23.68153,-0.00115c-6.19175,-1.82161 -12.35867,-5.74833 -12.35867,-12.83269v-21.97136c0,-6.93598 5.71368,-12.88004 12.68489,-12.88004h23.03372c7.02836,0 13.25129,-6.15942 13.25129,-13.47473v-11.40081zM358.77377,242.76069c0,-3.04911 2.45037,-5.53874 5.48216,-5.53874c3.0416,0 5.48158,2.49021 5.48158,5.53874c0,3.04795 -2.43247,5.56472 -5.48158,5.56472c-3.04045,0 -5.48216,-2.51561 -5.48216,-5.56472zM364.25593,239.53145c-1.73154,0 -3.17267,1.43073 -3.17267,3.22925c0,1.81411 1.44805,3.25523 3.17267,3.25523c1.73096,0 3.17209,-1.43939 3.17209,-3.25523c0,-1.80025 -1.43362,-3.22925 -3.17209,-3.22925z" fill="#1f1436" fill-rule="evenodd"/><path d="M334.73427,169.62196c0,-1.91325 1.55099,-3.46424 3.46424,-3.46424c1.91325,0 3.46424,1.55099 3.46424,3.46424c0,1.91325 -1.55099,3.46424 -3.46424,3.46424c-1.91325,0 -3.46424,-1.55099 -3.46424,-3.46424z" fill="#ffffff" fill-rule="nonzero"/><path d="M360.71605,242.65965c0,-1.91325 1.55099,-3.46424 3.46424,-3.46424c1.91325,0 3.46424,1.55099 3.46424,3.46424c0,1.91325 -1.55099,3.46424 -3.46424,3.46424c-1.91325,0 -3.46424,-1.55099 -3.46424,-3.46424z" fill="#ffffff" fill-rule="nonzero"/></g></g></g></svg>